<?xml version="1.0" encoding="UTF-8"?>
<svg id="Livello_2" data-name="Livello 2" xmlns="http://www.w3.org/2000/svg" viewBox="0 0 114.37 62.94">
  <defs>
    <style>
      .cls-1 {
        fill: #fff;
      }
    </style>
  </defs>
  <g id="Livello_1-2" data-name="Livello 1">
    <g>
      <path class="cls-1" d="M42.98,15.95c4.98,1.23,9.78,1.87,14.77,2.44l14.17,1.61v24.04c-3.1-1.29-5.94-2.14-9.16-2.49l-23.14-2.51c-5.51-.6-10.74-1.25-16.17-2.29-4.87-.94-9.25-2.81-13.53-5.22C3.11,27.69-.63,20.5.09,12.68.45,8.7,1.5,5.11,3.84,1.89c.6-.82,1.6-1.37,2.78-1.37h62.56c1.09,0,1.91.16,2.97.35v12.27c0,.34-.42,1.09-.74,1.18-2.43.73.29-7.78-18.93-7.53-3.26.04-6.4.17-9.48,1.16-1.89.61-3.97,2.29-3.85,4.42.1,1.69,2.09,3.15,3.84,3.58Z"/>
      <path class="cls-1" d="M114.32,43.82h-35.32s-.3-14.71-.3-14.71l-.06-8.6c5.19.21,10.03.73,15.14,1.39,7.04.67,13.77,2.06,20.59,4.43l-.05,17.49Z"/>
      <path class="cls-1" d="M112,13.26c-7.09,7.46-26.94,7.16-33.64.03-2.22-2.36-2.08-5.81.24-8.02,7.47-7.15,26.49-6.96,33.32.21,2.15,2.25,2.22,5.53.08,7.79Z"/>
      <path class="cls-1" d="M46.8,62.48l-2.27-4.02-2.34-.16-.14,4.3c-.55.16-1.61.14-2.32-.03v-11.64c3.06,0,8.42-.81,9.14,2.79.38,1.9-.31,3.4-2.17,4.26l2.5,4.4c-.09.45-2.1.64-2.41.11ZM45.98,55.94c.89-.47.68-2.46-.11-2.76-1.17-.44-2.43-.43-3.75-.39v3.55c1.19.11,2.67.22,3.86-.41Z"/>
      <path class="cls-1" d="M33.14,62.93c-2.07.11-4.25-.39-5.07-2.34-.61-1.44-.54-3.38-.53-5,.02-2.89,2.03-4.77,4.86-4.81,2.38-.04,4.69,1.22,4.97,3.82.15,1.46.15,3.15,0,4.62-.22,2.22-1.93,3.59-4.23,3.71ZM34.94,54.56c-.13-1.12-1.45-1.86-2.42-1.87-3.29-.04-2.73,4.97-2.2,7.07.24.95,1.71,1.26,2.54,1.22,2.76-.13,2.35-4.09,2.08-6.42Z"/>
      <path class="cls-1" d="M13.29,62.1c-2.82,1.55-8.08,1.09-8.16-2.66l2.24.02c.69,1.29,1.8,1.66,3.33,1.5.49-.05,1.36-.53,1.57-.93.25-.5-.34-1.58-.89-1.75l-3.7-1.13c-1.09-.33-2.11-1.49-2.2-2.44-.13-1.26.36-2.44,1.47-3.18,2.22-1.46,6.98-.88,7.45,2.42-2.95,1.53-2.33-2-5.32-1.21-.53.14-1.19.81-1.2,1.29,0,.46.65,1.25,1.09,1.38l3.73,1.12c.98.3,1.92,1.41,2.05,2.21.2,1.21-.24,2.67-1.44,3.33Z"/>
      <path class="cls-1" d="M110.26,62.43l-1.17-2.04-4.87.12-.7,1.89c-.17.47-1.55.46-2.38.12l4.21-11.36c.84-.33,2.01-.34,2.9-.06l4.16,11.33c-.27.42-1.86.52-2.16,0ZM108.7,58.4l-1.9-5.1-1.89,5.15,3.79-.05Z"/>
      <path class="cls-1" d="M83.6,62.8l-1.01-2.38-5.1.08-.71,1.89c-.18.48-1.7.45-2.29.12l4.14-11.32c.79-.37,1.98-.38,2.89-.1l4.23,11.3c-.47.23-1.48.42-2.15.41ZM82.04,58.48l-1.91-5.33-1.92,5.26,3.83.07Z"/>
      <path class="cls-1" d="M19.29,58.4l-.09,4.27h-2.39s.02-11.75.02-11.75c2.16-.02,3.89-.02,5.77.07,2.21.11,3.56,1.9,3.55,3.75-.01,2.11-1.55,3.59-3.8,3.62l-3.04.04ZM22.85,56.23c1.23-.51,1.09-2.74,0-3.12s-2.26-.33-3.58-.29v3.72c1.29.05,2.52.13,3.59-.31Z"/>
      <path class="cls-1" d="M71.35,62.43c-.35.48-1.98.41-2.29,0l-.05-9.33-3.15-.17c-.53-.03-.46-2.01.05-2.01h8.67c.52.01.59,1.98.06,2.02l-3.21.19-.08,9.3Z"/>
      <path class="cls-1" d="M55.97,62.25c0,.74-2.26.74-2.27.1l-.09-9.23-3.17-.2c-.5-.03-.43-1.97.09-2h8.69c.54,0,.54,2,0,2.02l-3.18.14-.08,9.17Z"/>
      <path class="cls-1" d="M95.09,60.89c.39.03.3,1.8-.08,1.88h-7.83s-.01-11.54-.01-11.54c.58-.45,1.94-.45,2.38.05l.05,9.42,5.49.2Z"/>
      <path class="cls-1" d="M63.89,62.53c-.64.26-1.66.26-2.46.07l-.02-11.42c.67-.27,1.54-.3,2.45-.16l.03,11.52Z"/>
      <path class="cls-1" d="M99.53,62.54c-.84.25-1.69.25-2.46,0v-11.26c.44-.56,1.9-.54,2.42-.04l.04,11.3Z"/>
    </g>
  </g>
</svg>